<svg width="24" height="15" viewBox="0 0 24 15" fill="none" xmlns="http://www.w3.org/2000/svg">
<path d="M20.8211 8.77718L20.9803 8.60624L20.7484 8.60957L0.955628 8.89438C0.487138 8.90112 0.0999896 8.5069 0.0999896 8.00152C0.0999896 7.49652 0.492386 7.0907 0.955628 7.08403L20.7484 6.79923L20.9801 6.79589L20.8211 6.62958L16.7794 2.40097L16.7791 2.40067C16.4449 2.05391 16.4449 1.47633 16.7842 1.11988L16.7847 1.11933C17.1162 0.765889 17.6568 0.758067 17.9884 1.10738L17.9887 1.10767L23.6494 7.02178L23.6496 7.02202C23.8157 7.19437 23.8975 7.42198 23.8975 7.65909C23.8975 7.89619 23.8157 8.12616 23.6496 8.30328L23.6494 8.3035L17.9887 14.3746L17.9884 14.3749C17.6571 14.7335 17.1217 14.7419 16.7842 14.3971C16.4452 14.0507 16.4444 13.4786 16.7796 13.1159L20.8211 8.77718Z" fill="#0F0F0F" stroke="#FDFDFD" stroke-width="0.2"/>
</svg>
