<svg width="36" height="34" viewBox="0 0 36 34" fill="none" xmlns="http://www.w3.org/2000/svg">
<path fill-rule="evenodd" clip-rule="evenodd" d="M15.3109 25.7916C15.0063 24.6205 15.046 23.4596 15.0913 22.3C14.8206 22.5362 14.5411 22.7628 14.248 22.9748C13.4879 23.5269 12.6092 23.9373 11.7315 24.3472L11.7315 24.3472C11.1924 24.599 10.6536 24.8506 10.143 25.1348C9.98462 25.2228 9.87665 25.3947 9.76665 25.5698C9.65598 25.746 9.54325 25.9254 9.37502 26.0261C9.3401 26.0469 9.30263 26.0697 9.26308 26.0938L9.26299 26.0938C8.98251 26.2645 8.59754 26.4988 8.28036 26.548L8.24392 26.5534C8.09531 26.5752 7.94021 26.5979 7.88311 26.7166C7.59179 27.3349 3.12489 29.8001 1.72126 27.9934C0.503905 26.4531 3.28054 24.3481 5.00229 23.0429C5.22829 22.8715 5.43611 22.714 5.61435 22.5733C7.0739 21.4429 8.53344 20.3124 9.98331 19.1732C9.61293 19.0796 9.2444 18.9713 8.8767 18.8632C8.36165 18.7119 7.8482 18.561 7.33348 18.4515C7.17715 18.4199 6.99304 18.4758 6.80427 18.533C6.60932 18.5922 6.40941 18.6528 6.23 18.6202L6.14756 18.6068C5.85361 18.5596 5.4287 18.4913 5.17948 18.3231L5.1593 18.3089C5.05027 18.232 4.9334 18.1497 4.80871 18.2026C4.20842 18.4596 -0.293792 17.5442 0.0151837 15.3521C0.28666 13.4129 3.66356 13.6087 5.63875 13.7232C5.84735 13.7353 6.04032 13.7465 6.21234 13.7541C7.47998 13.8177 8.74108 13.8782 9.99764 13.9321C9.8723 13.7229 9.75169 13.5103 9.63116 13.2978C9.35412 12.8093 9.07755 12.3216 8.74512 11.8786C8.65498 11.7556 8.47511 11.685 8.29242 11.6132C8.11728 11.5444 7.93955 11.4746 7.83585 11.3567C7.81415 11.332 7.79044 11.3056 7.76542 11.2778C7.58693 11.0792 7.34164 10.8063 7.2797 10.5457C7.2777 10.536 7.27575 10.5262 7.2738 10.5164C7.24985 10.3961 7.22491 10.2708 7.09431 10.2486C6.79416 10.1602 5.94669 9.38136 5.37288 8.40173C4.76375 7.47028 4.38416 6.30596 5.13452 5.43875C5.87607 4.59563 7.08548 4.82046 8.31256 5.43072C8.8952 5.75191 9.48666 6.16143 10.0163 6.56292C10.3419 6.82395 10.6365 7.08499 10.8979 7.31659C11.0546 7.45546 11.1993 7.58375 11.3317 7.69511C12.4802 8.6994 13.5603 9.74518 14.6015 10.8026C14.6502 10.1401 14.8101 9.47578 14.9699 8.81189L14.9699 8.81187L14.9699 8.81186L14.9699 8.81185C15.096 8.28826 15.222 7.76492 15.2933 7.24289C15.3154 7.08995 15.2333 6.9229 15.1492 6.75183C15.0656 6.5816 14.9799 6.40739 14.9931 6.23917C14.9973 6.19598 15.0011 6.14796 15.0051 6.09665L15.0051 6.09663V6.09662C15.0264 5.82359 15.055 5.45723 15.1962 5.22742C15.2054 5.21171 15.2151 5.19599 15.2247 5.18028C15.2891 5.07555 15.3535 4.97081 15.2845 4.86608C14.949 4.33612 15.3639 0.0241382 17.7827 4.89143e-05C20.007 -0.014993 20.1789 3.44283 20.2715 5.30628C20.2778 5.43235 20.2837 5.55112 20.2899 5.66102C20.3826 7.16092 20.4554 8.66082 20.5121 10.1607C20.8663 9.89032 21.2321 9.60075 21.5133 9.34828C23.0935 7.96716 24.6914 6.6021 26.7129 5.63853C26.7581 5.61856 26.8703 5.55001 27.0338 5.45006C28.0541 4.82659 31.0736 2.98152 32.2833 4.08879C33.7576 5.43779 30.8356 8.85846 30.3324 9.18768C30.0182 9.39778 29.6902 9.59469 29.3623 9.79149C28.4371 10.3468 27.5133 10.9014 26.9072 11.7492C26.4241 12.4147 25.8535 12.993 25.245 13.5339C27.0579 13.3794 28.8744 13.2311 30.7803 13.5855C30.8253 13.5961 30.9549 13.6047 31.1443 13.6174C32.2534 13.6915 35.4146 13.9029 35.6709 15.4324C35.9887 17.3113 31.9014 18.4194 31.3364 18.3953C30.9726 18.3866 30.6074 18.3584 30.2429 18.3303H30.2429H30.2429H30.2428C29.2631 18.2546 28.288 18.1793 27.3551 18.4837C26.0118 18.9368 24.628 18.9802 23.2422 19.0236C23.18 19.0256 23.1178 19.0275 23.0556 19.0295C23.1194 19.0976 23.1986 19.1846 23.2888 19.2837C23.6365 19.6657 24.1468 20.2265 24.5647 20.5668C24.7914 20.7635 25.0178 20.9563 25.2427 21.1478C26.3491 22.0899 27.4185 23.0004 28.2988 24.1882C28.3257 24.2316 28.4319 24.3308 28.5865 24.475C28.8897 24.7579 29.3786 25.2142 29.8172 25.7621C30.5146 26.5088 31.1502 27.4724 30.7353 28.2995C30.3028 29.1587 29.0404 29.263 27.7603 29.0703C26.5421 28.8134 25.3503 28.2834 25.1561 28.0827C24.8756 27.8319 24.611 27.5667 24.3478 27.3029C24.1305 27.0851 23.9142 26.8683 23.6907 26.6614C23.2316 26.1796 22.7285 25.746 22.084 25.4569C21.6803 25.2592 21.3073 25.0323 20.9566 24.7851C20.934 26.4408 20.8022 28.0888 20.1663 29.7182C20.1544 29.7507 20.1339 29.8312 20.1041 29.9483L20.104 29.9485C19.8685 30.8746 19.0504 34.0907 17.2796 33.998C15.205 33.8937 14.7636 29.951 14.8607 29.4532C14.9218 29.1405 15.002 28.8283 15.0822 28.5162C15.3149 27.6103 15.5473 26.7054 15.3109 25.7916Z" fill="#00AAE7"/>
</svg>
