<svg width="30" height="18" viewBox="0 0 30 18" fill="none" xmlns="http://www.w3.org/2000/svg">
<path d="M25.9211 9.96218L26.1182 9.75054L25.831 9.75467L1.32574 10.1073C0.745701 10.1156 0.266375 9.62755 0.266375 9.00184C0.266375 8.37661 0.752199 7.87416 1.32574 7.8659L25.831 7.51329L26.1179 7.50916L25.9211 7.30324L20.9171 2.06782L20.9167 2.06745C20.5029 1.63814 20.5029 0.92304 20.923 0.481717L20.9237 0.481035C21.3341 0.0434411 22.0034 0.0337549 22.4139 0.466238L22.4143 0.466597L29.4228 7.78883L29.423 7.78913C29.6287 8.00251 29.73 8.28431 29.73 8.57787C29.73 8.87144 29.6287 9.15615 29.423 9.37545L29.4228 9.37572L22.4143 16.8923L22.4139 16.8927C22.0037 17.3366 21.3409 17.3471 20.923 16.9202C20.5033 16.4913 20.5023 15.7832 20.9172 15.3341C20.9172 15.334 20.9173 15.334 20.9173 15.3339L25.9211 9.96218Z" fill="#0F0F0F" stroke="#FDFDFD" stroke-width="0.247619"/>
</svg>
