<svg width="32" height="32" viewBox="0 0 32 32" fill="none" xmlns="http://www.w3.org/2000/svg">
<path d="M3.33594 15.9987C3.33594 10.028 3.33594 7.04136 5.1906 5.1867C7.04527 3.33203 10.0306 3.33203 16.0026 3.33203C21.9733 3.33203 24.9599 3.33203 26.8146 5.1867C28.6693 7.04136 28.6693 10.0267 28.6693 15.9987C28.6693 21.9694 28.6693 24.956 26.8146 26.8107C24.9599 28.6654 21.9746 28.6654 16.0026 28.6654C10.0319 28.6654 7.04527 28.6654 5.1906 26.8107C3.33594 24.956 3.33594 21.9707 3.33594 15.9987Z" stroke="#00A14C" stroke-width="2"/>
<path d="M23.344 8.66406H23.3307M22 15.9974C22 17.5887 21.3679 19.1148 20.2426 20.24C19.1174 21.3653 17.5913 21.9974 16 21.9974C14.4087 21.9974 12.8826 21.3653 11.7574 20.24C10.6321 19.1148 10 17.5887 10 15.9974C10 14.4061 10.6321 12.88 11.7574 11.7548C12.8826 10.6295 14.4087 9.9974 16 9.9974C17.5913 9.9974 19.1174 10.6295 20.2426 11.7548C21.3679 12.88 22 14.4061 22 15.9974Z" stroke="#00A14C" stroke-width="2"/>
</svg>
