<svg width="32" height="32" viewBox="0 0 32 32" fill="none" xmlns="http://www.w3.org/2000/svg">
<path fill-rule="evenodd" clip-rule="evenodd" d="M13.5729 11.1426C13.4154 11.0515 13.2355 11.0023 13.0517 11.0001C12.868 10.9978 12.6869 11.0426 12.5269 11.1297C12.367 11.2169 12.2339 11.3434 12.1414 11.4963C12.0488 11.6492 12 11.823 12 12V20C12 20.177 12.0488 20.3508 12.1414 20.5037C12.2339 20.6566 12.367 20.7831 12.5269 20.8703C12.6869 20.9574 12.868 21.0022 13.0517 20.9999C13.2355 20.9977 13.4154 20.9485 13.5729 20.8574L20.4961 16.8573C20.6498 16.7685 20.777 16.6428 20.8653 16.4926C20.9536 16.3423 21 16.1726 21 16C21 15.8274 20.9536 15.6577 20.8653 15.5074C20.777 15.3572 20.6498 15.2315 20.4961 15.1427L13.5729 11.1426ZM17.9428 16L14.0769 18.2334V13.7666L17.9428 16Z" fill="#EC5427"/>
<path fill-rule="evenodd" clip-rule="evenodd" d="M23.2801 5.28598C18.4342 4.90467 13.5661 4.90467 8.72017 5.28598L5.47676 5.54222C4.5184 5.61737 3.6126 6.01296 2.90364 6.66597C2.19468 7.31898 1.72334 8.19186 1.56469 9.14557C0.81177 13.6838 0.81177 18.3161 1.56469 22.8543C1.72334 23.808 2.19468 24.6809 2.90364 25.3339C3.6126 25.9869 4.5184 26.3825 5.47676 26.4577L8.71872 26.7139C13.5658 27.0954 18.4345 27.0954 23.2815 26.7139L26.5235 26.4577C27.4818 26.3825 28.3876 25.9869 29.0966 25.3339C29.8056 24.6809 30.2769 23.808 30.4356 22.8543C31.1882 18.3163 31.1882 13.6836 30.4356 9.14557C30.2769 8.19186 29.8056 7.31898 29.0966 6.66597C28.3876 6.01296 27.4818 5.61737 26.5235 5.54222L23.2801 5.28598ZM8.8895 7.46401C13.6236 7.09142 18.3795 7.09142 23.1136 7.46401L26.3556 7.71879C27.334 7.79595 28.1343 8.5341 28.295 9.50664C29.0107 13.8056 29.0107 18.1943 28.295 22.4933C28.2166 22.9663 27.9831 23.3994 27.6316 23.7234C27.2801 24.0474 26.8309 24.2437 26.3556 24.2811L23.1136 24.5359C18.3795 24.9085 13.6236 24.9085 8.8895 24.5359L5.64754 24.2811C5.17224 24.2437 4.72305 24.0474 4.37157 23.7234C4.02008 23.3994 3.78654 22.9663 3.70815 22.4933C2.99239 18.1943 2.99239 13.8056 3.70815 9.50664C3.78654 9.03358 4.02008 8.60053 4.37157 8.27652C4.72305 7.9525 5.17224 7.75616 5.64754 7.71879L8.8895 7.46401Z" fill="#EC5427"/>
</svg>
